<?xml version="1.0" encoding="UTF-8"?><svg xmlns="http://www.w3.org/2000/svg" viewBox="0 0 2000 2000"><g id="a"/><g id="b"><g id="c"><rect width="2000" height="2000"/><g><path d="M651.7876,1095.444c-61.2623,5.5941-162.8302,8.9162-218.4332-16.3147-15.9098-7.135-31.9008-20.4949-33.2378-39.3283-3.6662-48.415,80.0997-104.6662,116.5254-129.2734,17.5141-11.565,35.3838-22.5444,53.465-33.167l-5.1717,8.7872c.4193-19.1566,2.0098-37.9476,4.3937-56.9047,9.8356-72.64,31.3388-161.3646,96.2749-204.2962,47.517-31.9038,100.3228-53.8194,154.3343-71.7424,119.2138-37.9544,254.6928-55.0181,374.4958-11.1026,21.8608,8.1823,43.0326,18.7099,62.6238,31.3818-12.2872-6.4896-25.0327-12.4771-38.0083-17.4512-125.407-48.0037-268.7327-26.2435-392.7835,16.0153-51.6302,18.2619-102.885,40.1487-148.0633,70.9563-14.7739,10.115-26.8163,21.6414-36.8784,36.2745-37.0392,54.7574-49.6933,128.6184-54.9893,193.7189-.5177,6.4797-.6904,13.0872-.9012,19.4447l-4.9836,2.8371c-35.7407,20.3888-71.1588,41.8183-104.0157,66.4629-16.0333,12.1706-31.7943,25.2999-44.703,40.5787-20.9707,25.1229-26.5566,48.1971,7.2537,65.3946,8.6785,4.5073,18.2283,7.8853,27.9727,10.6725,59.8834,15.9086,122.9171,17.1475,184.8297,17.056h0Z" style="fill:#fff;"/><path d="M677.2905,854.016c90.4644-40.6288,186.3515-68.8342,283.4757-88.416,75.9174-14.7384,153.6203-23.3899,231.0017-22.5713,44.1599,.3886,89.022,4.1022,132.5654,11.5374,65.8303,9.5889,132.1266,23.6558,191.9976,53.6857,29.8215,15.5821,60.0229,35.3396,75.9554,66.0782,17.3775,33.4867,3.4467,67.7353-22.3928,91.8989,32.1041-38.0449,33.3529-77.9309-5.5399-111.5432-52.5128-45.0753-143.1034-64.2862-210.6045-74.8104-32.3327-4.3732-64.7695-9.5658-97.213-11.7995-21.0371-1.7369-43.8912-2.6615-64.9978-2.795-108.923-1.1715-217.6252,14.1027-324.0227,37.049-64.1637,14.14-127.814,31.0387-190.2251,51.6862h0Z" style="fill:#fff;"/><path d="M1272.0289,594.1536c32.5776,46.5687,51.4233,111.061,51.0062,167.7526-1.1661-7.3027-1.7729-14.6427-3.0693-21.9118-7.9073-50.7899-23.9432-100.3292-47.9369-145.8408h0Z" style="fill:#fff;"/><path d="M689.9295,1099.3953s-76.0993,74.7524-14.8158,111.1184c0,0-6.3977-38.0496,8.0813-49.8349,14.4791-11.7853,29.2949-40.07,6.7345-61.2835Z" style="fill:#fff;"/><g><path d="M779.0641,1290.0744c-8.6166,.9413-21.1062,2.8134-24.2595,5.9669-.1634,.1636-.3066,.3366-.4309,.5181-1.1915,1.7392-2.6509,3.2578-4.6001,4.061-4.6448,1.914-9.6427,4.333-14.4912,7.346-1.3714,.8522-3.1514-.0438-3.2992-1.6516-3.6112-39.2681-10.4015-80.3118-10.4015-80.3118,30.1781,10.8506,52.4176,41.4204,61.4955,55.734,2.1602,3.4055-.0041,7.8994-4.0131,8.3374Z" style="fill:#fff;"/><path d="M800.3248,1333.9441c-12.3478,3.7667-21.085,8.4847-26.4062,13.4338-2.1867,2.0338-4.6403,3.7578-7.3796,4.9472-5.1628,2.2416-10.9503,5.1125-16.8343,8.7122-2.3709,1.4504-5.2834,1.608-7.8504,.5425-1.0079-.4184-1.9612-.7604-2.8364-1.0393-3.0652-.9767-5.0859-3.8539-4.9637-7.0687,.0903-2.3739,.1313-4.8821,.1281-7.5022-.0163-13.4709,7.9859-25.7568,20.4006-30.9856,1.0529-.4435,2.0898-.8585,3.1019-1.2459,3.3328-1.2758,6.8986-1.5927,10.4621-1.4026,.9595,.0511,1.9325,.0189,2.9076-.1009,14.8835-1.8287,25.6862,6.1021,31.7487,12.3957,2.9282,3.0403,1.5591,8.082-2.4784,9.3138Z" style="fill:#fff;"/><path d="M764.2061,1370.2263c.6336-.3319,1.263-.6545,1.8872-.9679,2.5897-1.3004,5.6369-.8767,7.9768,.8328l.0399,.029c14.8162,10.7752,76.773,47.8147,63.9772,54.5491-3.2871,1.7303-7.2411,4.6161-11.3022,7.9496-15.534,12.7503-25.1788,31.3079-27.0839,51.3136-42.4272-.6735-44.4472-8.0813-35.6926-64.6507,2.7651-17.8659,.7571-30.4159-3.2813-39.2348-1.666-3.6383-.0658-7.9638,3.4789-9.8207Z" style="fill:#fff;"/></g></g></g></g></svg>